<?xml version="1.0" encoding="UTF-8"?><svg fill="none" viewBox="0 0 50 50" xmlns="http://www.w3.org/2000/svg"><path d="m17.188 16.406c0-0.4636 0.1375-0.9167 0.395-1.3021 0.2575-0.3855 0.6236-0.6859 1.0518-0.8633 0.4283-0.1774 0.8996-0.2238 1.3542-0.1333 0.4546 0.0904 0.8723 0.3136 1.2 0.6414 0.3278 0.3278 0.551 0.7454 0.6415 1.2 0.0904 0.4547 0.044 0.9259-0.1334 1.3542-0.1774 0.4282-0.4778 0.7943-0.8632 1.0518-0.3855 0.2576-0.8386 0.395-1.3021 0.395-0.6216 0-1.2178-0.2469-1.6573-0.6865-0.4396-0.4395-0.6865-1.0356-0.6865-1.6572zm13.281 2.3437c0.4635 0 0.9166-0.1374 1.3021-0.395 0.3854-0.2575 0.6858-0.6236 0.8632-1.0518 0.1774-0.4283 0.2238-0.8995 0.1334-1.3542-0.0905-0.4546-0.3137-0.8722-0.6415-1.2-0.3277-0.3278-0.7454-0.551-1.2-0.6414-0.4546-0.0905-0.9259-0.0441-1.3542 0.1333-0.4282 0.1774-0.7943 0.4778-1.0518 0.8633-0.2575 0.3854-0.395 0.8385-0.395 1.3021 0 0.6216 0.2469 1.2177 0.6865 1.6572 0.4395 0.4396 1.0357 0.6865 1.6573 0.6865zm11.719 1.5625v9.375c0 4.5584-1.8108 8.9301-5.0341 12.153s-7.595 5.0341-12.153 5.0341-8.9301-1.8108-12.153-5.0341c-3.2233-3.2233-5.0341-7.595-5.0341-12.153v-9.375c-0.00284-4.4657 1.7385-8.756 4.8529-11.956l-2.7758-2.5096c-0.15416-0.13706-0.27965-0.3033-0.36924-0.48911-0.08958-0.18582-0.14149-0.38753-0.15272-0.59351s0.01844-0.41214 0.08729-0.60659c0.06885-0.19446 0.17552-0.37335 0.31387-0.52637 0.13834-0.15301 0.30565-0.27712 0.49215-0.36516 0.1866-0.08804 0.3887-0.13827 0.5948-0.14778 0.206-0.00952 0.4119 0.02186 0.6058 0.09232 0.1939 0.07047 0.3719 0.17862 0.5238 0.31823l3.0683 2.774c2.9047-2.067 6.3812-3.1776 9.9463-3.1776s7.0416 1.1107 9.9463 3.1776l3.0684-2.774c0.308-0.27385 0.7117-0.41493 1.1232-0.39249 0.4116 0.02244 0.7976 0.20657 1.074 0.5123 0.2764 0.30572 0.4208 0.70827 0.4018 1.12-0.019 0.41171-0.1999 0.79923-0.5033 1.0782l-2.7758 2.5098c3.1143 3.2004 4.8557 7.4906 4.8529 11.956zm-31.25 0v1.5625h28.125v-1.5625c0-3.7296-1.4816-7.3064-4.1188-9.9437-2.6372-2.6372-6.2141-4.1188-9.9437-4.1188s-7.3065 1.4816-9.9437 4.1188c-2.6372 2.6373-4.1188 6.2141-4.1188 9.9437zm28.125 9.375v-4.6875h-28.125v4.6875c0 3.7296 1.4816 7.3065 4.1188 9.9437s6.2141 4.1188 9.9437 4.1188 7.3065-1.4816 9.9437-4.1188 4.1188-6.2141 4.1188-9.9437z" fill="#000"/></svg>
