<?xml version="1.0" encoding="UTF-8"?><svg fill="none" viewBox="0 0 50 50" xmlns="http://www.w3.org/2000/svg"><path d="m43.286 25.942c-0.3382 0.5414-0.7863 1.0058-1.3153 1.3632l-13.791 9.3098c-0.942 0.636-2.0526 0.9759-3.1891 0.9759-1.1366 0-2.2472-0.3399-3.1892-0.9759l-13.791-9.3098c-0.82542-0.5568-1.4458-1.3686-1.7665-2.3112s-0.32392-1.9643-0.00928-2.909l15.595 10.395c0.8755 0.5834 1.8954 0.9131 2.9467 0.9525 1.0514 0.0394 2.0931-0.2129 3.0098-0.7291l0.3648-0.2234 15.594-10.395c0.213 0.6369 0.2824 1.313 0.2032 1.9799-0.0792 0.6668-0.3051 1.3079-0.6614 1.8771zm0.4582 3.5516c0.3164 0.9443 0.3143 1.9664-0.0061 2.9093-0.3203 0.943-0.9412 1.7548-1.7674 2.3109l-13.791 9.3098c-0.942 0.6361-2.0526 0.9759-3.1891 0.9759-1.1366 0-2.2472-0.3398-3.1892-0.9759l-13.791-9.3098c-0.82542-0.5568-1.4458-1.3685-1.7665-2.3112-0.32066-0.9426-0.32392-1.9643-0.00928-2.909l15.595 10.395c0.8755 0.5834 1.8954 0.9131 2.9467 0.9525 1.0514 0.0395 2.0931-0.2129 3.0098-0.7291l0.3648-0.2234 15.594-10.395zm-15.592-23.537 14.51 9.6722c0.3122 0.2082 0.5682 0.4903 0.7453 0.8211 0.177 0.3309 0.2696 0.7003 0.2696 1.0756 0 0.3752-0.0926 0.7446-0.2696 1.0755-0.1771 0.3309-0.4331 0.6129-0.7453 0.8211l-14.51 9.6745c-0.9362 0.6243-2.0364 0.9575-3.1617 0.9575-1.1254 0-2.2255-0.3332-3.1618-0.9575l-14.51-9.6745c-0.3122-0.2082-0.56819-0.4902-0.74524-0.8211s-0.26968-0.7003-0.26968-1.0755c0-0.3753 0.09263-0.7447 0.26968-1.0756 0.17705-0.3308 0.43304-0.6129 0.74524-0.8211l14.51-9.6722c0.9363-0.62434 2.0364-0.95751 3.1618-0.95751 1.1253 0 2.2255 0.33317 3.1617 0.95751zm-4.1648 2.6922-0.2644 0.15273-13.082 8.724 13.085 8.7262c0.3316 0.2209 0.7153 0.351 1.1129 0.3774s0.7951-0.0518 1.153-0.227l0.2644-0.1504 13.082-8.7262-13.085-8.724c-0.3311-0.22086-0.7143-0.35118-1.1114-0.37797-0.3971-0.0268-0.7944 0.05086-1.1522 0.22524h-0.0023z" fill="#000"/></svg>
