<?xml version="1.0" encoding="UTF-8"?><svg viewBox="0 0 50 50" xmlns="http://www.w3.org/2000/svg"><path d="m24.623 4.7348c0-0.42694-0.1696-0.83639-0.4715-1.1383-0.3019-0.30189-0.7113-0.47149-1.1383-0.47149-0.4269 0-0.8364 0.1696-1.1382 0.47149-0.3019 0.30188-0.4715 0.71133-0.4715 1.1383v2.6829c-0.6793 0.23921-1.2962 0.62797-1.8051 1.1376l-14.765 14.767c-0.44845 0.4484-0.80418 0.9808-1.0469 1.5667-0.2427 0.5859-0.36761 1.2139-0.36761 1.8481s0.12491 1.2622 0.36761 1.8481c0.24269 0.5859 0.59842 1.1183 1.0469 1.5667l10.474 10.47c0.4484 0.4484 0.9808 0.8041 1.5667 1.0468s1.2139 0.3676 1.8481 0.3676 1.2622-0.1249 1.8481-0.3676 1.1183-0.5984 1.5667-1.0468l14.765-14.765c0.4484-0.4484 0.8042-0.9808 1.0469-1.5667 0.2427-0.586 0.3676-1.2139 0.3676-1.8481s-0.1249-1.2622-0.3676-1.8481-0.5985-1.1183-1.0469-1.5668l-10.476-10.472c-0.5083-0.50932-1.1244-0.89807-1.8029-1.1376v-2.6829zm-17.512 20.862 14.293-14.295v3.0907c0 0.4269 0.1696 0.8364 0.4715 1.1383 0.3018 0.3018 0.7113 0.4714 1.1382 0.4714 0.427 0 0.8364-0.1696 1.1383-0.4714 0.3019-0.3019 0.4715-0.7114 0.4715-1.1383v-3.0907l9.9998 10.002c0.3014 0.3018 0.4708 0.711 0.4708 1.1376s-0.1694 0.8357-0.4708 1.1375l-2.082 2.082h-25.492l0.06224-0.0644zm1.0088 3.2839h21.202l-9.4632 9.4632c-0.3018 0.3015-0.711 0.4708-1.1376 0.4708-0.4265 0-0.8357-0.1693-1.1375-0.4708l-9.4654-9.4632h0.00214z"/><path d="m40.765 29.1c-0.1601-0.2998-0.3986-0.5505-0.69-0.7253-0.2915-0.1748-0.625-0.2671-0.9648-0.2671-0.3399 0-0.6734 0.0923-0.9648 0.2671-0.2915 0.1748-0.53 0.4255-0.6901 0.7253l-4.3098 8.0831c-2.4061 4.503 0.8607 9.9418 5.9647 9.9418s8.3664-5.4388 5.9668-9.9418l-4.312-8.0831zm-4.7799 9.5963 3.1251-5.8595 3.125 5.8595c0.2877 0.5396 0.4308 1.1445 0.4153 1.7558s-0.189 1.2082-0.5037 1.7326c-0.3147 0.5243-0.7597 0.9582-1.2919 1.2595-0.5321 0.3013-1.1332 0.4596-1.7447 0.4596-0.6116 0-1.2126-0.1583-1.7448-0.4596-0.5321-0.3013-0.9772-0.7352-1.2919-1.2595-0.3146-0.5244-0.4882-1.1213-0.5037-1.7326s0.1276-1.2162 0.4153-1.7558z"/></svg>
