<?xml version="1.0" encoding="UTF-8"?><svg width="30" height="30" fill="#000000" focusable="false" viewBox="0 0 171 171" xmlns="http://www.w3.org/2000/svg"><g font-family="none" font-size="none" font-weight="none" stroke-dasharray="" stroke-miterlimit="10" text-anchor="none" style="mix-blend-mode:normal"><path d="m0 172v-172h172v172z" fill="none"/><g fill="#3B82F6"><path d="m74.1 17.1c-31.413 0-57 25.587-57 57s25.587 57 57 57c13.66 0 26.205-4.8508 36.037-12.903l34.033 34.033c1.4296 1.4891 3.5526 2.0889 5.5501 1.5682s3.5575-2.0807 4.0782-4.0782-0.0791-4.1205-1.5682-5.5501l-34.033-34.033c8.0522-9.8318 12.903-22.377 12.903-36.037 0-31.413-25.587-57-57-57zm0 11.4c25.252 0 45.6 20.348 45.6 45.6s-20.348 45.6-45.6 45.6-45.6-20.348-45.6-45.6 20.348-45.6 45.6-45.6z"/></g></g></svg>
