<?xml version="1.0" encoding="UTF-8"?><svg fill="none" viewBox="0 0 50 50" xmlns="http://www.w3.org/2000/svg"><path d="m45.156 30.552-3.1983-2.7344c0.1514-0.9278 0.2295-1.875 0.2295-2.8223 0-0.9472-0.0781-1.8945-0.2295-2.8222l3.1983-2.7344c0.2412-0.2065 0.4138-0.4816 0.495-0.7886 0.0811-0.307 0.0668-0.6315-0.0409-0.9302l-0.044-0.1269c-0.8805-2.4608-2.1989-4.742-3.8916-6.7334l-0.0879-0.1026c-0.2053-0.2414-0.479-0.415-0.785-0.4978-0.3059-0.0828-0.6298-0.0709-0.9288 0.034l-3.9698 1.4111c-1.4648-1.2012-3.1006-2.1484-4.8681-2.8125l-0.7666-4.1504c-0.0579-0.31229-0.2094-0.5996-0.4344-0.82374s-0.5129-0.37452-0.8254-0.43114l-0.1318-0.02442c-2.544-0.45898-5.2198-0.45898-7.7637 0l-0.1318 0.02442c-0.3126 0.05662-0.6005 0.207-0.8255 0.43114s-0.3765 0.51145-0.4343 0.82374l-0.7715 4.1699c-1.7535 0.6642-3.3864 1.611-4.834 2.8028l-3.999-1.4209c-0.299-0.1058-0.62309-0.118-0.92923-0.0352-0.30613 0.0829-0.5798 0.2569-0.78464 0.499l-0.08789 0.1026c-1.6907 1.9928-3.0089 4.2736-3.8916 6.7334l-0.04395 0.1269c-0.21972 0.6104-0.03906 1.294 0.4541 1.7188l3.2373 2.7636c-0.15137 0.918-0.22461 1.8555-0.22461 2.7881 0 0.9375 0.07324 1.875 0.22461 2.7881l-3.2373 2.7637c-0.24123 0.2065-0.41388 0.4816-0.495 0.7886-0.08111 0.307-0.06685 0.6314 0.0409 0.9301l0.04395 0.127c0.88379 2.4609 2.1924 4.7314 3.8916 6.7334l0.08789 0.1025c0.20534 0.2415 0.47902 0.415 0.78497 0.4978 0.30595 0.0829 0.62981 0.071 0.9289-0.0339l3.999-1.4209c1.4551 1.1963 3.0811 2.1436 4.834 2.8027l0.7715 4.17c0.0578 0.3123 0.2093 0.5996 0.4343 0.8237s0.5129 0.3745 0.8255 0.4311l0.1318 0.0245c2.5673 0.4614 5.1963 0.4614 7.7637 0l0.1318-0.0245c0.3125-0.0566 0.6004-0.207 0.8254-0.4311s0.3765-0.5114 0.4344-0.8237l0.7666-4.1504c1.7668-0.6624 3.4118-1.6127 4.8681-2.8125l3.9698 1.4111c0.2989 0.1058 0.623 0.118 0.9292 0.0352 0.3061-0.0829 0.5798-0.2569 0.7846-0.4991l0.0879-0.1025c1.6992-2.0068 3.0078-4.2725 3.8916-6.7334l0.044-0.127c0.2197-0.6005 0.039-1.2841-0.4541-1.7089zm-6.6651-7.8028c0.1221 0.7373 0.1856 1.4942 0.1856 2.251s-0.0635 1.5137-0.1856 2.251l-0.3222 1.958 3.6474 3.1201c-0.5529 1.2739-1.2509 2.4798-2.0801 3.5938l-4.5312-1.6065-1.5332 1.2598c-1.167 0.957-2.4658 1.709-3.8721 2.2363l-1.8603 0.6982-0.8741 4.7364c-1.379 0.1562-2.7713 0.1562-4.1504 0l-0.874-4.7461-1.8457-0.708c-1.3916-0.5274-2.6855-1.2793-3.8428-2.2315l-1.5332-1.2646-4.5605 1.6211c-0.83008-1.1182-1.5234-2.3242-2.0801-3.5938l3.6865-3.1494-0.3173-1.9531c-0.1172-0.7276-0.1807-1.4795-0.1807-2.2217 0-0.7471 0.0586-1.4941 0.1807-2.2217l0.3173-1.9531-3.6865-3.1494c0.55176-1.2744 1.25-2.4756 2.0801-3.5938l4.5605 1.6211 1.5332-1.2646c1.1573-0.9522 2.4512-1.7041 3.8428-2.2315l1.8506-0.6982 0.874-4.7461c1.3721-0.15625 2.7735-0.15625 4.1504 0l0.874 4.7363 1.8604 0.6983c1.4014 0.5273 2.7051 1.2793 3.8721 2.2363l1.5332 1.2598 4.5312-1.6065c0.8301 1.1182 1.5235 2.3242 2.0801 3.5938l-3.6475 3.1201 0.3174 1.9482zm-13.491-6.831c-4.7461 0-8.5937 3.8476-8.5937 8.5937s3.8476 8.5938 8.5937 8.5938 8.5938-3.8477 8.5938-8.5938-3.8477-8.5937-8.5938-8.5937zm3.8672 12.461c-0.5072 0.5087-1.11 0.9121-1.7737 1.1869-0.6637 0.2749-1.3751 0.4158-2.0935 0.4147-1.46 0-2.832-0.5713-3.8672-1.6016-0.5087-0.5072-0.912-1.11-1.1869-1.7737-0.2748-0.6637-0.4158-1.3751-0.4146-2.0935 0-1.4599 0.5712-2.832 1.6015-3.8672 1.0352-1.0351 2.4072-1.6015 3.8672-1.6015s2.832 0.5664 3.8672 1.6015c0.5087 0.5072 0.912 1.11 1.1869 1.7737s0.4158 1.3752 0.4147 2.0935c0 1.46-0.5713 2.8321-1.6016 3.8672z" fill="#000"/></svg>
